<mxfile host="app.diagrams.net" modified="2022-07-16T07:39:18.325Z" agent="5.0 (Macintosh; Intel Mac OS X 10_15_7) AppleWebKit/537.36 (KHTML, like Gecko) Chrome/103.0.0.0 Safari/537.36" etag="73sbpaH0piWOLtMZ5RuI" version="20.1.1" type="github">
  <diagram id="fcgSEib6s0HsokugwAEr" name="Container Security">
    <mxGraphModel dx="983" dy="491" grid="1" gridSize="10" guides="1" tooltips="1" connect="1" arrows="1" fold="1" page="1" pageScale="1" pageWidth="1169" pageHeight="827" math="0" shadow="0">
      <root>
        <mxCell id="0" />
        <mxCell id="1" parent="0" />
        <mxCell id="ph6BqFhjhlMa40ZBtt31-3" value="" style="group" vertex="1" connectable="0" parent="1">
          <mxGeometry x="300" y="100" width="90" height="90" as="geometry" />
        </mxCell>
        <mxCell id="ph6BqFhjhlMa40ZBtt31-1" value="" style="shape=image;html=1;verticalAlign=top;verticalLabelPosition=bottom;labelBackgroundColor=#ffffff;imageAspect=0;aspect=fixed;image=https://cdn0.iconfinder.com/data/icons/phosphor-thin-vol-3/256/git-branch-thin-128.png;container=1;" vertex="1" parent="ph6BqFhjhlMa40ZBtt31-3">
          <mxGeometry x="11" width="68" height="68" as="geometry" />
        </mxCell>
        <mxCell id="ph6BqFhjhlMa40ZBtt31-2" value="Dev Branch" style="text;html=1;align=center;verticalAlign=middle;resizable=0;points=[];autosize=1;strokeColor=none;fillColor=none;" vertex="1" parent="ph6BqFhjhlMa40ZBtt31-3">
          <mxGeometry y="60" width="90" height="30" as="geometry" />
        </mxCell>
        <mxCell id="ph6BqFhjhlMa40ZBtt31-4" value="" style="group" vertex="1" connectable="0" parent="1">
          <mxGeometry x="300" y="200" width="90" height="90" as="geometry" />
        </mxCell>
        <mxCell id="ph6BqFhjhlMa40ZBtt31-5" value="" style="shape=image;html=1;verticalAlign=top;verticalLabelPosition=bottom;labelBackgroundColor=#ffffff;imageAspect=0;aspect=fixed;image=https://cdn0.iconfinder.com/data/icons/phosphor-thin-vol-3/256/git-branch-thin-128.png;container=1;" vertex="1" parent="ph6BqFhjhlMa40ZBtt31-4">
          <mxGeometry x="11" width="68" height="68" as="geometry" />
        </mxCell>
        <mxCell id="ph6BqFhjhlMa40ZBtt31-6" value="Stag Branch" style="text;html=1;align=center;verticalAlign=middle;resizable=0;points=[];autosize=1;strokeColor=none;fillColor=none;" vertex="1" parent="ph6BqFhjhlMa40ZBtt31-4">
          <mxGeometry y="60" width="90" height="30" as="geometry" />
        </mxCell>
        <mxCell id="ph6BqFhjhlMa40ZBtt31-7" value="" style="group" vertex="1" connectable="0" parent="1">
          <mxGeometry x="300" y="310" width="90" height="90" as="geometry" />
        </mxCell>
        <mxCell id="ph6BqFhjhlMa40ZBtt31-8" value="" style="shape=image;html=1;verticalAlign=top;verticalLabelPosition=bottom;labelBackgroundColor=#ffffff;imageAspect=0;aspect=fixed;image=https://cdn0.iconfinder.com/data/icons/phosphor-thin-vol-3/256/git-branch-thin-128.png;container=1;" vertex="1" parent="ph6BqFhjhlMa40ZBtt31-7">
          <mxGeometry x="11" width="68" height="68" as="geometry" />
        </mxCell>
        <mxCell id="ph6BqFhjhlMa40ZBtt31-9" value="Prod Branch" style="text;html=1;align=center;verticalAlign=middle;resizable=0;points=[];autosize=1;strokeColor=none;fillColor=none;" vertex="1" parent="ph6BqFhjhlMa40ZBtt31-7">
          <mxGeometry y="60" width="90" height="30" as="geometry" />
        </mxCell>
        <mxCell id="ph6BqFhjhlMa40ZBtt31-14" value="" style="group" vertex="1" connectable="0" parent="1">
          <mxGeometry x="205" y="210" width="60" height="85" as="geometry" />
        </mxCell>
        <mxCell id="ph6BqFhjhlMa40ZBtt31-10" value="" style="pointerEvents=1;verticalLabelPosition=bottom;shadow=0;dashed=0;align=center;html=1;verticalAlign=top;shape=mxgraph.electrical.signal_sources.source;aspect=fixed;points=[[0.5,0,0],[1,0.5,0],[0.5,1,0],[0,0.5,0]];elSignalType=ac;" vertex="1" parent="ph6BqFhjhlMa40ZBtt31-14">
          <mxGeometry x="5" width="50" height="50" as="geometry" />
        </mxCell>
        <mxCell id="ph6BqFhjhlMa40ZBtt31-13" value="Source&lt;br&gt;Code" style="text;html=1;align=center;verticalAlign=middle;resizable=0;points=[];autosize=1;strokeColor=none;fillColor=none;" vertex="1" parent="ph6BqFhjhlMa40ZBtt31-14">
          <mxGeometry y="45" width="60" height="40" as="geometry" />
        </mxCell>
        <mxCell id="ph6BqFhjhlMa40ZBtt31-15" value="" style="group" vertex="1" connectable="0" parent="1">
          <mxGeometry x="90" y="210" width="80" height="75" as="geometry" />
        </mxCell>
        <mxCell id="ph6BqFhjhlMa40ZBtt31-11" value="" style="sketch=0;outlineConnect=0;fontColor=#232F3E;gradientColor=none;fillColor=#232F3D;strokeColor=none;dashed=0;verticalLabelPosition=bottom;verticalAlign=top;align=center;html=1;fontSize=12;fontStyle=0;aspect=fixed;pointerEvents=1;shape=mxgraph.aws4.user;" vertex="1" parent="ph6BqFhjhlMa40ZBtt31-15">
          <mxGeometry x="20" width="44" height="44" as="geometry" />
        </mxCell>
        <mxCell id="ph6BqFhjhlMa40ZBtt31-12" value="Developer" style="text;html=1;align=center;verticalAlign=middle;resizable=0;points=[];autosize=1;strokeColor=none;fillColor=none;" vertex="1" parent="ph6BqFhjhlMa40ZBtt31-15">
          <mxGeometry y="45" width="80" height="30" as="geometry" />
        </mxCell>
        <mxCell id="ph6BqFhjhlMa40ZBtt31-16" style="edgeStyle=orthogonalEdgeStyle;rounded=0;orthogonalLoop=1;jettySize=auto;html=1;" edge="1" parent="1" source="ph6BqFhjhlMa40ZBtt31-11">
          <mxGeometry relative="1" as="geometry">
            <mxPoint x="210" y="232" as="targetPoint" />
          </mxGeometry>
        </mxCell>
        <mxCell id="ph6BqFhjhlMa40ZBtt31-17" style="edgeStyle=orthogonalEdgeStyle;rounded=0;orthogonalLoop=1;jettySize=auto;html=1;entryX=0;entryY=0.5;entryDx=0;entryDy=0;" edge="1" parent="1" source="ph6BqFhjhlMa40ZBtt31-10" target="ph6BqFhjhlMa40ZBtt31-1">
          <mxGeometry relative="1" as="geometry">
            <Array as="points">
              <mxPoint x="235" y="134" />
            </Array>
          </mxGeometry>
        </mxCell>
        <mxCell id="ph6BqFhjhlMa40ZBtt31-18" style="edgeStyle=orthogonalEdgeStyle;rounded=0;orthogonalLoop=1;jettySize=auto;html=1;" edge="1" parent="1" source="ph6BqFhjhlMa40ZBtt31-10">
          <mxGeometry relative="1" as="geometry">
            <mxPoint x="310" y="235" as="targetPoint" />
          </mxGeometry>
        </mxCell>
        <mxCell id="ph6BqFhjhlMa40ZBtt31-19" style="edgeStyle=orthogonalEdgeStyle;rounded=0;orthogonalLoop=1;jettySize=auto;html=1;entryX=0;entryY=0.75;entryDx=0;entryDy=0;" edge="1" parent="1" source="ph6BqFhjhlMa40ZBtt31-13" target="ph6BqFhjhlMa40ZBtt31-8">
          <mxGeometry relative="1" as="geometry">
            <Array as="points">
              <mxPoint x="235" y="361" />
            </Array>
          </mxGeometry>
        </mxCell>
        <mxCell id="ph6BqFhjhlMa40ZBtt31-22" value="" style="group" vertex="1" connectable="0" parent="1">
          <mxGeometry x="490" y="50" width="80" height="90" as="geometry" />
        </mxCell>
        <mxCell id="ph6BqFhjhlMa40ZBtt31-20" value="" style="sketch=0;points=[[0,0,0],[0.25,0,0],[0.5,0,0],[0.75,0,0],[1,0,0],[0,1,0],[0.25,1,0],[0.5,1,0],[0.75,1,0],[1,1,0],[0,0.25,0],[0,0.5,0],[0,0.75,0],[1,0.25,0],[1,0.5,0],[1,0.75,0]];outlineConnect=0;fontColor=#232F3E;gradientColor=#F78E04;gradientDirection=north;fillColor=#D05C17;strokeColor=#ffffff;dashed=0;verticalLabelPosition=bottom;verticalAlign=top;align=center;html=1;fontSize=12;fontStyle=0;aspect=fixed;shape=mxgraph.aws4.resourceIcon;resIcon=mxgraph.aws4.ecr;container=1;" vertex="1" parent="ph6BqFhjhlMa40ZBtt31-22">
          <mxGeometry x="10" width="60" height="60" as="geometry" />
        </mxCell>
        <mxCell id="ph6BqFhjhlMa40ZBtt31-21" value="ECR (DEV)" style="text;html=1;align=center;verticalAlign=middle;resizable=0;points=[];autosize=1;strokeColor=none;fillColor=none;" vertex="1" parent="ph6BqFhjhlMa40ZBtt31-22">
          <mxGeometry y="60" width="80" height="30" as="geometry" />
        </mxCell>
        <mxCell id="ph6BqFhjhlMa40ZBtt31-23" value="" style="group" vertex="1" connectable="0" parent="1">
          <mxGeometry x="500" y="290" width="100" height="90" as="geometry" />
        </mxCell>
        <mxCell id="ph6BqFhjhlMa40ZBtt31-24" value="" style="sketch=0;points=[[0,0,0],[0.25,0,0],[0.5,0,0],[0.75,0,0],[1,0,0],[0,1,0],[0.25,1,0],[0.5,1,0],[0.75,1,0],[1,1,0],[0,0.25,0],[0,0.5,0],[0,0.75,0],[1,0.25,0],[1,0.5,0],[1,0.75,0]];outlineConnect=0;fontColor=#232F3E;gradientColor=#F78E04;gradientDirection=north;fillColor=#D05C17;strokeColor=#ffffff;dashed=0;verticalLabelPosition=bottom;verticalAlign=top;align=center;html=1;fontSize=12;fontStyle=0;aspect=fixed;shape=mxgraph.aws4.resourceIcon;resIcon=mxgraph.aws4.ecr;container=1;" vertex="1" parent="ph6BqFhjhlMa40ZBtt31-23">
          <mxGeometry x="10" width="60" height="60" as="geometry" />
        </mxCell>
        <mxCell id="ph6BqFhjhlMa40ZBtt31-25" value="ECR (STG/PROD)" style="text;html=1;align=center;verticalAlign=middle;resizable=0;points=[];autosize=1;strokeColor=none;fillColor=none;" vertex="1" parent="ph6BqFhjhlMa40ZBtt31-23">
          <mxGeometry x="-20" y="60" width="120" height="30" as="geometry" />
        </mxCell>
      </root>
    </mxGraphModel>
  </diagram>
</mxfile>
